HIERARCHY
ROOT Hips
{
    OFFSET 0.000000 0.000000 0.000000
    CHANNELS 6 Xposition Yposition Zposition Zrotation Xrotation Yrotation
    JOINT Spine
    {
        OFFSET -0.000000 8.349382 0.000000
        CHANNELS 3 Zrotation Xrotation Yrotation
        JOINT Spine1
        {
            OFFSET -0.000000 23.269058 0.000000
            CHANNELS 3 Zrotation Xrotation Yrotation
            JOINT Neck
            {
                OFFSET -0.000000 23.173496 2.106681
                CHANNELS 3 Zrotation Xrotation Yrotation
                JOINT Head
                {
                    OFFSET -0.000000 14.255042 -2.036435
                    CHANNELS 3 Zrotation Xrotation Yrotation
                    End Site
                    {
                        OFFSET -0.000000 25.455433 0.000000
                    }
                }
            }
            JOINT LeftShoulder
            {
                OFFSET 3.917082 21.531742 0.000256
                CHANNELS 3 Zrotation Xrotation Yrotation
                JOINT LeftArm
                {
                    OFFSET 10.728225 0.000000 0.000000
                    CHANNELS 3 Zrotation Xrotation Yrotation
                    JOINT LeftForeArm
                    {
                        OFFSET 30.046112 0.000000 0.000000
                        CHANNELS 3 Zrotation Xrotation Yrotation
                        JOINT LeftHand
                        {
                            OFFSET 29.023712 0.000000 0.000000
                            CHANNELS 3 Zrotation Xrotation Yrotation
                            End Site
                            {
                                OFFSET 15.273261 0.000000 0.000000
                            }
                        }
                    }
                }
            }
            JOINT RightShoulder
            {
                OFFSET -3.920664 21.531742 0.000256
                CHANNELS 3 Zrotation Xrotation Yrotation
                JOINT RightArm
                {
                    OFFSET -10.728225 0.000000 0.000000
                    CHANNELS 3 Zrotation Xrotation Yrotation
                    JOINT RightForeArm
                    {
                        OFFSET -30.046112 0.000000 0.000000
                        CHANNELS 3 Zrotation Xrotation Yrotation
                        JOINT RightHand
                        {
                            OFFSET -29.023712 0.000000 0.000000
                            CHANNELS 3 Zrotation Xrotation Yrotation
                            End Site
                            {
                                OFFSET -15.273261 0.000000 0.000000
                            }
                        }
                    }
                }
            }
        }
    }
    JOINT LeftUpLeg
    {
        OFFSET 10.182174 0.000000 0.000000
        CHANNELS 3 Zrotation Xrotation Yrotation
        JOINT LeftLeg
        {
            OFFSET -0.000000 -49.689274 0.000000
            CHANNELS 3 Zrotation Xrotation Yrotation
            JOINT LeftFoot
            {
                OFFSET -0.000000 -39.155319 0.000000
                CHANNELS 3 Zrotation Xrotation Yrotation
                JOINT LeftToeBase
                {
                    OFFSET -0.000000 -6.618412 15.273261
                    CHANNELS 3 Zrotation Xrotation Yrotation
                    End Site
                    {
                        OFFSET -0.000000 0.000000 4.072869
                    }
                }
            }
        }
    }
    JOINT RightUpLeg
    {
        OFFSET -10.182174 0.000000 0.000000
        CHANNELS 3 Zrotation Xrotation Yrotation
        JOINT RightLeg
        {
            OFFSET -0.000000 -49.689274 0.000000
            CHANNELS 3 Zrotation Xrotation Yrotation
            JOINT RightFoot
            {
                OFFSET -0.000000 -39.155319 0.000000
                CHANNELS 3 Zrotation Xrotation Yrotation
                JOINT RightToeBase
                {
                    OFFSET -0.000000 -6.618412 15.273261
                    CHANNELS 3 Zrotation Xrotation Yrotation
                    End Site
                    {
                        OFFSET -0.000000 0.000000 4.072869
                    }
                }
            }
        }
    }
}
MOTION
Frames:    12
Frame Time:    0.008333
-4.604849    98.151474    31.651419    -0.753607    1.241824    94.729965    -0.519382    -1.271594    0.887331    1.359538    4.334253    0.841659    2.036987    6.371279    4.296874    -2.314836    -3.779639    3.880625    13.475279    -1.088279    -17.667572    -16.794353    -5.592279    6.874006    4.318493    -7.528723    -3.367285    2.109716    -7.397097    0.312682    -13.077054    4.785807    -19.843248    24.308710    -3.751429    4.158593    -4.055614    -3.067582    4.975255    -5.490056    -3.055052    3.413851    1.935467    3.383603    -0.710117    -5.158958    -2.324336    -2.058750    -0.372582    0.226443    12.342714    0.000000    0.000000    0.000000    -3.704449    0.832914    -7.988213    4.624563    4.173395    -2.715794    -2.906355    -4.015401    5.400436    0.000000    0.000000    0.000000    
-4.604716    98.148956    31.656786    -0.733745    1.233990    94.780312    -0.513286    -1.276867    0.866085    1.376111    4.376884    0.819235    2.047591    6.308509    4.321724    -2.296199    -3.659425    3.909973    13.476178    -1.110677    -17.666885    -16.840868    -5.500206    6.850035    4.314287    -7.523366    -3.381173    2.126118    -7.391363    0.308856    -13.095188    4.783247    -19.857574    24.364889    -3.733540    4.200075    -4.052442    -3.048770    4.950899    -5.724789    -3.041678    3.362455    1.946571    3.385502    -0.711519    -5.152321    -2.303024    -2.086818    -0.415955    0.181996    12.323013    0.000000    0.000000    0.000000    -3.698766    0.860609    -7.976490    4.641826    4.140777    -3.073435    -2.903312    -4.003907    5.720611    0.000000    0.000000    0.000000    
-4.606280    98.147629    31.657393    -0.724729    1.236379    94.794693    -0.501330    -1.258241    0.864333    1.360905    4.357961    0.818010    2.022395    6.227505    4.308603    -2.222005    -3.446015    3.914092    13.477537    -1.087218    -17.658352    -16.833357    -5.518192    6.813428    4.296916    -7.498418    -3.435543    2.108275    -7.361426    0.501379    -13.096895    4.784310    -19.868719    24.388462    -3.703716    4.214018    -4.055109    -3.036049    4.935270    -5.807158    -3.031528    3.356889    1.946589    3.388752    -0.704132    -5.154914    -2.296060    -2.097570    -0.362047    0.212988    12.310788    0.000000    0.000000    0.000000    -3.724209    0.899171    -7.927720    4.708588    4.105965    -2.958691    -2.959690    -4.006800    5.530759    0.000000    0.000000    0.000000    
-4.606782    98.144516    31.656179    -0.719206    1.242370    94.814476    -0.489216    -1.256305    0.854063    1.342353    4.354396    0.808442    2.060321    6.188416    4.322163    -2.265929    -3.311365    3.919038    13.477607    -1.107011    -17.663012    -16.864647    -5.462959    6.818261    4.278727    -7.476941    -3.464363    2.174443    -7.339110    0.502703    -13.076871    4.791492    -19.868984    24.391508    -3.677262    4.234866    -4.069519    -3.021206    4.921332    -5.842642    -3.017431    3.353360    1.939036    3.390002    -0.713017    -5.151934    -2.290215    -2.092825    -0.373579    0.199088    12.304894    0.000000    0.000000    0.000000    -3.736023    0.903299    -7.915790    4.721956    4.115590    -2.947976    -2.971916    -4.018143    5.494636    0.000000    0.000000    0.000000    
-4.608320    98.140694    31.657583    -0.712362    1.242588    94.825516    -0.480599    -1.235283    0.848132    1.339611    4.317201    0.802829    2.043045    6.168232    4.329968    -2.231323    -3.182273    3.936779    13.468671    -1.089792    -17.663864    -16.878115    -5.443899    6.806159    4.261637    -7.485636    -3.461197    2.170119    -7.349309    0.457366    -13.069806    4.793101    -19.857166    24.387556    -3.668809    4.235725    -4.073771    -3.001639    4.919510    -5.858294    -2.996924    3.328464    1.943608    3.389168    -0.726595    -5.159881    -2.272981    -2.092467    -0.352390    0.178652    12.305798    0.000000    0.000000    0.000000    -3.737705    0.903257    -7.903630    4.729769    4.139507    -2.885266    -2.993979    -4.043864    5.400446    0.000000    0.000000    0.000000    
-4.607756    98.136414    31.658190    -0.703287    1.247463    94.838928    -0.472166    -1.230766    0.844046    1.335538    4.321596    0.798801    2.035017    6.097548    4.339898    -2.224682    -3.007043    3.951027    13.469625    -1.102054    -17.637512    -16.905291    -5.432133    6.772955    4.249938    -7.501681    -3.485612    2.172394    -7.364610    0.467003    -13.087756    4.783925    -19.859697    24.399986    -3.818523    4.245961    -4.023166    -2.913547    4.914072    -5.913997    -2.912707    3.326469    1.940026    3.399433    -0.736142    -5.153900    -2.281180    -2.108053    -0.348699    0.177877    12.307557    0.000000    0.000000    0.000000    -3.715565    0.872572    -7.934590    4.658844    4.205788    -3.070206    -2.947547    -4.092023    5.610703    0.000000    0.000000    0.000000    
-4.608213    98.132721    31.656378    -0.694460    1.260068    94.842918    -0.481455    -1.210510    0.847597    1.346051    4.291096    0.802284    2.026312    6.081249    4.340264    -2.222174    -2.886158    3.954660    13.462950    -1.082367    -17.636852    -16.927814    -5.446182    6.746434    4.236490    -7.532481    -3.516760    2.234170    -7.393397    0.520839    -13.065260    4.803207    -19.873032    24.376945    -3.839242    4.261908    -4.018200    -2.904701    4.912321    -5.923310    -2.907563    3.387532    1.927985    3.406523    -0.764267    -5.149440    -2.268959    -2.117307    -0.348829    0.158509    12.331982    0.000000    0.000000    0.000000    -3.728473    0.872925    -7.934801    4.657745    4.232202    -3.030241    -2.959116    -4.121819    5.560524    0.000000    0.000000    0.000000    
-4.609285    98.128998    31.657478    -0.691809    1.260827    94.851547    -0.470075    -1.201048    0.842576    1.344654    4.273464    0.797368    2.014869    6.043202    4.348953    -2.229190    -2.742993    3.965666    13.457787    -1.066450    -17.626297    -16.961716    -5.433259    6.735009    4.255366    -7.572711    -3.548941    2.161541    -7.432109    0.526353    -13.079925    4.795388    -19.867290    24.397894    -3.807908    4.252495    -4.047073    -2.933076    4.935623    -5.857712    -2.930666    3.362113    1.930985    3.405767    -0.781396    -5.156684    -2.266265    -2.103159    -0.365284    0.144950    12.331479    0.000000    0.000000    0.000000    -3.725196    0.868039    -7.934217    4.652929    4.249905    -3.032508    -2.940891    -4.141261    5.548010    0.000000    0.000000    0.000000    
-4.611103    98.126122    31.658741    -0.693557    1.267096    94.856293    -0.487376    -1.196500    0.853255    1.371796    4.261071    0.807412    2.025723    5.991619    4.341162    -2.265983    -2.591223    3.952424    13.456984    -1.064944    -17.629868    -17.004503    -5.434838    6.708587    4.255611    -7.603461    -3.582612    2.190576    -7.460983    0.552695    -13.094379    4.787755    -19.888229    24.418203    -3.683677    4.225204    -4.098016    -3.005079    4.971913    -5.781204    -2.996702    3.358056    1.925220    3.397935    -0.787262    -5.156865    -2.249129    -2.112554    -0.342299    0.119855    12.340525    0.000000    0.000000    0.000000    -3.728745    0.860114    -7.917428    4.651089    4.260957    -3.017597    -2.972012    -4.162388    5.504620    0.000000    0.000000    0.000000    
-4.611531    98.124054    31.657877    -0.694038    1.276957    94.866173    -0.482465    -1.191768    0.841619    1.370495    4.244122    0.795867    2.002244    5.977839    4.351654    -2.276023    -2.486393    3.965716    13.432740    -1.056873    -17.593573    -17.017614    -5.428647    6.669043    4.263101    -7.593672    -3.578298    2.245790    -7.449983    0.597214    -13.107591    4.786439    -19.883076    24.438154    -3.659578    4.235117    -4.126819    -3.036880    4.983708    -5.682837    -3.025916    3.397545    1.913835    3.394643    -0.812001    -5.151101    -2.249688    -2.095896    -0.345179    0.125397    12.329145    0.000000    0.000000    0.000000    -3.737744    0.863952    -7.935931    4.650274    4.260240    -3.026720    -2.974421    -4.182497    5.520513    0.000000    0.000000    0.000000    
-4.612285    98.123070    31.661146    -0.695125    1.274640    94.877594    -0.487512    -1.182959    0.844488    1.397919    4.219255    0.798036    1.991647    5.948224    4.355695    -2.301982    -2.359816    3.968662    13.413587    -1.040262    -17.605728    -17.023909    -5.492568    6.655993    4.242795    -7.568252    -3.598465    2.280315    -7.424193    0.601156    -13.117381    4.780602    -19.900417    24.451868    -3.696462    4.220541    -4.151233    -3.050035    5.040060    -5.622047    -3.030821    3.329850    1.918726    3.384073    -0.843973    -5.151588    -2.236176    -2.095778    -0.344360    0.101773    12.352554    0.000000    0.000000    0.000000    -3.732862    0.866996    -7.922943    4.649472    4.253958    -3.024976    -3.003441    -4.192127    5.505009    0.000000    0.000000    0.000000    
-4.612175    98.122971    31.661406    -0.701721    1.283311    94.883217    -0.496568    -1.191899    0.846829    1.402199    4.216112    0.800371    2.025676    5.927675    4.365955    -2.369174    -2.257797    3.966874    13.423762    -1.025074    -17.602779    -17.061087    -5.514300    6.629941    4.265108    -7.565948    -3.595425    2.165776    -7.423810    0.498987    -13.102054    4.774473    -19.899473    24.438551    -3.754068    4.209373    -4.127558    -3.040632    5.043489    -5.607175    -3.024417    3.381258    1.908415    3.367990    -0.854960    -5.141712    -2.207969    -2.123781    -0.403804    0.053023    12.373517    0.000000    0.000000    0.000000    -3.743369    0.860410    -7.929886    4.656398    4.261047    -2.997387    -3.006911    -4.196153    5.468905    0.000000    0.000000    0.000000    
